<?xml version='1.0' encoding='iso-8859-1'?>
<svg version="1.1" xmlns="http://www.w3.org/2000/svg" viewBox="0 0 463 463" xmlns:xlink="http://www.w3.org/1999/xlink" enable-background="new 0 0 463 463">
  <g>
    <path d="M183.5,96C108.785,96,48,156.785,48,231.5S108.785,367,183.5,367S319,306.215,319,231.5S258.215,96,183.5,96z M183.5,352   C117.056,352,63,297.944,63,231.5S117.056,111,183.5,111S304,165.056,304,231.5S249.944,352,183.5,352z"/>
    <path d="M423.5,48h-384C17.72,48,0,65.72,0,87.5v288C0,397.28,17.72,415,39.5,415h384c21.78,0,39.5-17.72,39.5-39.5v-288   C463,65.72,445.28,48,423.5,48z M448,375.5c0,13.509-10.99,24.5-24.5,24.5h-384C25.99,400,15,389.009,15,375.5v-288   C15,73.991,25.99,63,39.5,63h384c13.51,0,24.5,10.991,24.5,24.5V375.5z"/>
    <path d="m223,231.5c0-21.78-17.72-39.5-39.5-39.5s-39.5,17.72-39.5,39.5 17.72,39.5 39.5,39.5 39.5-17.72 39.5-39.5zm-64,0c0-13.509 10.99-24.5 24.5-24.5s24.5,10.991 24.5,24.5-10.99,24.5-24.5,24.5-24.5-10.991-24.5-24.5z"/>
    <path d="m270.411,273.011c-3.586-2.076-8.173-0.849-10.248,2.736-15.791,27.296-45.167,44.253-76.663,44.253-4.143,0-7.5,3.358-7.5,7.5s3.357,7.5 7.5,7.5c36.833,0 71.184-19.826 89.647-51.741 2.075-3.586 0.849-8.174-2.736-10.248z"/>
    <path d="m279.5,224c-4.143,0-7.5,3.358-7.5,7.5 0,4.951-0.412,9.918-1.225,14.763-0.686,4.085 2.07,7.952 6.155,8.637 0.421,0.071 0.838,0.104 1.25,0.104 3.597,0 6.773-2.595 7.388-6.26 0.95-5.663 1.432-11.464 1.432-17.245 5.68434e-14-4.141-3.357-7.499-7.5-7.499z"/>
    <path d="m167.492,144.328c0.412,0 0.83-0.034 1.25-0.104 4.839-0.812 9.805-1.224 14.758-1.224 4.143,0 7.5-3.358 7.5-7.5s-3.357-7.5-7.5-7.5c-5.782,0-11.583,0.481-17.24,1.431-4.085,0.686-6.841,4.553-6.155,8.638 0.615,3.664 3.791,6.259 7.387,6.259z"/>
    <path d="m139.249,154.838c3.586-2.074 4.811-6.663 2.735-10.248-2.073-3.585-6.661-4.81-10.247-2.736-31.913,18.465-51.737,52.815-51.737,89.646 0,4.142 3.357,7.5 7.5,7.5s7.5-3.358 7.5-7.5c0-31.495 16.955-60.87 44.249-76.662z"/>
    <path d="m183.5,160c-6.049,0-12.062,0.758-17.87,2.253-4.012,1.032-6.427,5.122-5.395,9.133 0.871,3.384 3.918,5.632 7.259,5.632 0.618,0 1.247-0.077 1.874-0.239 4.589-1.181 9.343-1.78 14.132-1.78 4.143,0 7.5-3.358 7.5-7.5s-3.357-7.499-7.5-7.499z"/>
    <path d="m146.794,178.534c-2.74-3.105-7.479-3.401-10.586-0.661-15.385,13.577-24.208,33.124-24.208,53.627 0,4.142 3.357,7.5 7.5,7.5s7.5-3.358 7.5-7.5c0-16.202 6.974-31.649 19.134-42.38 3.105-2.741 3.401-7.48 0.66-10.586z"/>
    <path d="m176,295.5c0,4.142 3.357,7.5 7.5,7.5 20.504,0 40.051-8.824 53.627-24.208 2.741-3.105 2.445-7.845-0.66-10.586-3.107-2.74-7.845-2.445-10.586,0.661-10.732,12.159-26.179,19.133-42.381,19.133-4.143,0-7.5,3.358-7.5,7.5z"/>
    <path d="m243.612,254.77c0.627,0.162 1.256,0.239 1.875,0.239 3.34,0 6.387-2.248 7.258-5.632 1.496-5.809 2.255-11.824 2.255-17.876 0-4.142-3.357-7.5-7.5-7.5s-7.5,3.358-7.5,7.5c0,4.792-0.599,9.548-1.78,14.136-1.033,4.01 1.381,8.099 5.392,9.133z"/>
    <path d="m383.5,88c-12.958,0-23.5,10.542-23.5,23.5 0,10.336 6.71,19.128 16,22.266v9.734c0,4.142 3.357,7.5 7.5,7.5s7.5-3.358 7.5-7.5v-9.734c9.29-3.138 16-11.93 16-22.266 0-12.958-10.542-23.5-23.5-23.5zm0,32c-4.687,0-8.5-3.813-8.5-8.5s3.813-8.5 8.5-8.5 8.5,3.813 8.5,8.5-3.813,8.5-8.5,8.5z"/>
    <path d="m383.5,168c-4.143,0-7.5,3.358-7.5,7.5v106.745c0,6.544-2.549,12.697-7.177,17.324l-14.875,14.875c-3.206-1.595-6.761-2.444-10.449-2.444-6.281,0-12.184,2.446-16.616,6.884l-7.998,7.998c-4.44,4.438-6.885,10.34-6.885,16.618s2.445,12.18 6.881,16.612c4.436,4.442 10.338,6.888 16.619,6.888s12.184-2.446 16.616-6.884l7.998-7.998c4.44-4.438 6.886-10.339 6.886-16.618 0-3.688-0.85-7.242-2.445-10.449l14.874-14.875c7.461-7.46 11.57-17.379 11.57-27.931v-106.745c0.001-4.142-3.356-7.5-7.499-7.5zm-33.991,173.509l-8.003,8.003c-1.602,1.604-3.735,2.487-6.006,2.487s-4.404-0.883-6.011-2.493c-1.605-1.604-2.489-3.737-2.489-6.007s0.884-4.403 2.491-6.009l8.003-8.003c1.602-1.604 3.735-2.487 6.006-2.487s4.404,0.883 6.011,2.493c1.605,1.604 2.489,3.737 2.489,6.007s-0.884,4.403-2.491,6.009z"/>
    <path d="m196,231.5c0-6.893-5.607-12.5-12.5-12.5s-12.5,5.607-12.5,12.5 5.607,12.5 12.5,12.5 12.5-5.607 12.5-12.5zm-15,0c0-1.378 1.121-2.5 2.5-2.5s2.5,1.122 2.5,2.5-1.121,2.5-2.5,2.5-2.5-1.122-2.5-2.5z"/>
  </g>
</svg>
